<?xml version="1.0" encoding="UTF-8"?>
<!DOCTYPE svg PUBLIC "-//W3C//DTD SVG 1.1//EN" "http://www.w3.org/Graphics/SVG/1.1/DTD/svg11.dtd">
<svg xmlns="http://www.w3.org/2000/svg" version="1.1" width="60px" height="56px" style="shape-rendering:geometricPrecision; text-rendering:geometricPrecision; image-rendering:optimizeQuality; fill-rule:evenodd; clip-rule:evenodd" xmlns:xlink="http://www.w3.org/1999/xlink">
<g><path style="opacity:0.923" fill="#029b77" d="M 17.5,1.5 C 25.5069,1.33362 33.5069,1.50029 41.5,2C 42.8333,2.66667 44.1667,3.33333 45.5,4C 50.7059,11.2456 54.7059,19.0789 57.5,27.5C 57.3078,29.5767 56.8078,31.5767 56,33.5C 52.4523,40.0987 48.2856,46.2654 43.5,52C 34.9105,53.5762 26.2438,53.9095 17.5,53C 15.4127,52.2078 13.5793,51.0412 12,49.5C 8.91879,43.6688 5.58546,38.0021 2,32.5C 1.33333,29.1667 1.33333,25.8333 2,22.5C 5.58546,16.9979 8.91879,11.3312 12,5.5C 13.4998,3.5313 15.3331,2.19796 17.5,1.5 Z M 20.5,11.5 C 26.1764,11.3339 31.8431,11.5006 37.5,12C 41.1472,16.7948 44.1472,21.9615 46.5,27.5C 44.0725,32.4372 41.4058,37.2705 38.5,42C 32.1405,42.8306 25.8072,42.6639 19.5,41.5C 16.8333,36.8333 14.1667,32.1667 11.5,27.5C 14.5559,22.1325 17.5559,16.7992 20.5,11.5 Z"/></g>
<g><path style="opacity:0.921" fill="#049c76" d="M 24.5,20.5 C 31.2021,18.9842 35.5354,21.3175 37.5,27.5C 35.2616,34.0787 30.7616,36.0787 24,33.5C 20.5484,28.9627 20.7151,24.6294 24.5,20.5 Z"/></g>
</svg>
